<mxfile host="app.diagrams.net" agent="Mozilla/5.0 (Windows NT 10.0; Win64; x64) AppleWebKit/537.36 (KHTML, like Gecko) Chrome/134.0.0.0 Safari/537.36" version="26.2.4">
  <diagram name="Page-1" id="StYZJcCEQKMgn_R7Sx6w">
    <mxGraphModel dx="2068" dy="1111" grid="1" gridSize="10" guides="1" tooltips="1" connect="1" arrows="1" fold="1" page="1" pageScale="1" pageWidth="850" pageHeight="1100" math="0" shadow="0">
      <root>
        <mxCell id="0" />
        <mxCell id="1" parent="0" />
        <mxCell id="QFMOEgFZAVhb_OsHRTg_-8" style="edgeStyle=orthogonalEdgeStyle;rounded=0;orthogonalLoop=1;jettySize=auto;html=1;exitX=0.5;exitY=0;exitDx=0;exitDy=0;entryX=0;entryY=0.5;entryDx=0;entryDy=0;endArrow=none;startFill=0;" edge="1" parent="1" source="QFMOEgFZAVhb_OsHRTg_-1" target="QFMOEgFZAVhb_OsHRTg_-7">
          <mxGeometry relative="1" as="geometry" />
        </mxCell>
        <mxCell id="QFMOEgFZAVhb_OsHRTg_-101" value="pc" style="edgeLabel;html=1;align=center;verticalAlign=middle;resizable=0;points=[];" vertex="1" connectable="0" parent="QFMOEgFZAVhb_OsHRTg_-8">
          <mxGeometry x="-0.0093" y="1" relative="1" as="geometry">
            <mxPoint y="1" as="offset" />
          </mxGeometry>
        </mxCell>
        <mxCell id="QFMOEgFZAVhb_OsHRTg_-1" value="" style="rounded=0;whiteSpace=wrap;html=1;rotation=90;" vertex="1" parent="1">
          <mxGeometry x="340" y="420" width="62" height="11" as="geometry" />
        </mxCell>
        <mxCell id="QFMOEgFZAVhb_OsHRTg_-2" value="" style="triangle;whiteSpace=wrap;html=1;rotation=-90;" vertex="1" parent="1">
          <mxGeometry x="366.5" y="446.5" width="10" height="10" as="geometry" />
        </mxCell>
        <mxCell id="QFMOEgFZAVhb_OsHRTg_-4" style="edgeStyle=orthogonalEdgeStyle;rounded=0;orthogonalLoop=1;jettySize=auto;html=1;exitX=0.5;exitY=0;exitDx=0;exitDy=0;entryX=0.5;entryY=1;entryDx=0;entryDy=0;endArrow=none;startFill=0;" edge="1" parent="1" source="QFMOEgFZAVhb_OsHRTg_-3" target="QFMOEgFZAVhb_OsHRTg_-1">
          <mxGeometry relative="1" as="geometry" />
        </mxCell>
        <mxCell id="QFMOEgFZAVhb_OsHRTg_-3" value="" style="shape=trapezoid;perimeter=trapezoidPerimeter;whiteSpace=wrap;html=1;fixedSize=1;rotation=90;" vertex="1" parent="1">
          <mxGeometry x="300" y="420" width="50" height="11" as="geometry" />
        </mxCell>
        <mxCell id="QFMOEgFZAVhb_OsHRTg_-52" style="edgeStyle=orthogonalEdgeStyle;rounded=0;orthogonalLoop=1;jettySize=auto;html=1;exitX=1;exitY=0.5;exitDx=0;exitDy=0;entryX=0.5;entryY=1;entryDx=0;entryDy=0;endArrow=none;startFill=0;" edge="1" parent="1" source="QFMOEgFZAVhb_OsHRTg_-7" target="QFMOEgFZAVhb_OsHRTg_-11">
          <mxGeometry relative="1" as="geometry" />
        </mxCell>
        <mxCell id="QFMOEgFZAVhb_OsHRTg_-7" value="instr&lt;div&gt;mem&lt;/div&gt;" style="rounded=1;whiteSpace=wrap;html=1;" vertex="1" parent="1">
          <mxGeometry x="430" y="373.75" width="80" height="103.5" as="geometry" />
        </mxCell>
        <mxCell id="QFMOEgFZAVhb_OsHRTg_-11" value="" style="rounded=0;whiteSpace=wrap;html=1;rotation=90;" vertex="1" parent="1">
          <mxGeometry x="490.5" y="420" width="122" height="11" as="geometry" />
        </mxCell>
        <mxCell id="QFMOEgFZAVhb_OsHRTg_-12" value="" style="triangle;whiteSpace=wrap;html=1;rotation=-90;" vertex="1" parent="1">
          <mxGeometry x="546.5" y="476.5" width="10" height="10" as="geometry" />
        </mxCell>
        <mxCell id="QFMOEgFZAVhb_OsHRTg_-14" value="register&lt;div&gt;file&lt;/div&gt;" style="rounded=1;whiteSpace=wrap;html=1;" vertex="1" parent="1">
          <mxGeometry x="620" y="366.5" width="80" height="120" as="geometry" />
        </mxCell>
        <mxCell id="QFMOEgFZAVhb_OsHRTg_-15" value="" style="rounded=0;whiteSpace=wrap;html=1;rotation=90;" vertex="1" parent="1">
          <mxGeometry x="760" y="418.25" width="122" height="11" as="geometry" />
        </mxCell>
        <mxCell id="QFMOEgFZAVhb_OsHRTg_-16" value="" style="triangle;whiteSpace=wrap;html=1;rotation=-90;" vertex="1" parent="1">
          <mxGeometry x="816.5" y="474.75" width="10" height="10" as="geometry" />
        </mxCell>
        <mxCell id="QFMOEgFZAVhb_OsHRTg_-17" value="" style="shape=trapezoid;perimeter=trapezoidPerimeter;whiteSpace=wrap;html=1;fixedSize=1;rotation=90;" vertex="1" parent="1">
          <mxGeometry x="766.5" y="380" width="50" height="11" as="geometry" />
        </mxCell>
        <mxCell id="QFMOEgFZAVhb_OsHRTg_-18" value="" style="shape=trapezoid;perimeter=trapezoidPerimeter;whiteSpace=wrap;html=1;fixedSize=1;rotation=90;" vertex="1" parent="1">
          <mxGeometry x="766.5" y="456.5" width="50" height="11" as="geometry" />
        </mxCell>
        <mxCell id="QFMOEgFZAVhb_OsHRTg_-21" style="edgeStyle=orthogonalEdgeStyle;rounded=0;orthogonalLoop=1;jettySize=auto;html=1;exitX=0.5;exitY=0;exitDx=0;exitDy=0;entryX=0.174;entryY=0.864;entryDx=0;entryDy=0;entryPerimeter=0;endArrow=none;startFill=0;" edge="1" parent="1" source="QFMOEgFZAVhb_OsHRTg_-17" target="QFMOEgFZAVhb_OsHRTg_-15">
          <mxGeometry relative="1" as="geometry" />
        </mxCell>
        <mxCell id="QFMOEgFZAVhb_OsHRTg_-27" value="" style="group" vertex="1" connectable="0" parent="1">
          <mxGeometry x="870" y="360" width="110" height="133.58" as="geometry" />
        </mxCell>
        <mxCell id="QFMOEgFZAVhb_OsHRTg_-22" value="" style="endArrow=none;html=1;rounded=0;" edge="1" parent="QFMOEgFZAVhb_OsHRTg_-27">
          <mxGeometry width="50" height="50" relative="1" as="geometry">
            <mxPoint as="sourcePoint" />
            <mxPoint x="110" y="50.04245754245752" as="targetPoint" />
          </mxGeometry>
        </mxCell>
        <mxCell id="QFMOEgFZAVhb_OsHRTg_-23" value="" style="endArrow=none;html=1;rounded=0;" edge="1" parent="QFMOEgFZAVhb_OsHRTg_-27">
          <mxGeometry width="50" height="50" relative="1" as="geometry">
            <mxPoint y="133.58" as="sourcePoint" />
            <mxPoint x="110" y="83.40409590409587" as="targetPoint" />
          </mxGeometry>
        </mxCell>
        <mxCell id="QFMOEgFZAVhb_OsHRTg_-24" value="" style="endArrow=none;html=1;rounded=0;" edge="1" parent="QFMOEgFZAVhb_OsHRTg_-27">
          <mxGeometry width="50" height="50" relative="1" as="geometry">
            <mxPoint x="55" y="66.7232767232767" as="sourcePoint" />
            <mxPoint as="targetPoint" />
            <Array as="points">
              <mxPoint y="33.36163836163835" />
              <mxPoint y="20" />
            </Array>
          </mxGeometry>
        </mxCell>
        <mxCell id="QFMOEgFZAVhb_OsHRTg_-25" value="" style="endArrow=none;html=1;rounded=0;" edge="1" parent="QFMOEgFZAVhb_OsHRTg_-27">
          <mxGeometry width="50" height="50" relative="1" as="geometry">
            <mxPoint x="55" y="66.7232767232767" as="sourcePoint" />
            <mxPoint y="133.4465534465534" as="targetPoint" />
            <Array as="points">
              <mxPoint y="100.08491508491504" />
            </Array>
          </mxGeometry>
        </mxCell>
        <mxCell id="QFMOEgFZAVhb_OsHRTg_-26" value="" style="endArrow=none;html=1;rounded=0;" edge="1" parent="QFMOEgFZAVhb_OsHRTg_-27">
          <mxGeometry width="50" height="50" relative="1" as="geometry">
            <mxPoint x="110" y="83.40409590409587" as="sourcePoint" />
            <mxPoint x="110" y="50.04245754245752" as="targetPoint" />
          </mxGeometry>
        </mxCell>
        <mxCell id="QFMOEgFZAVhb_OsHRTg_-28" value="" style="endArrow=none;html=1;rounded=0;exitX=0.15;exitY=0.045;exitDx=0;exitDy=0;exitPerimeter=0;" edge="1" parent="1" source="QFMOEgFZAVhb_OsHRTg_-15">
          <mxGeometry width="50" height="50" relative="1" as="geometry">
            <mxPoint x="610" y="590" as="sourcePoint" />
            <mxPoint x="870" y="380" as="targetPoint" />
          </mxGeometry>
        </mxCell>
        <mxCell id="QFMOEgFZAVhb_OsHRTg_-29" value="" style="endArrow=none;html=1;rounded=0;exitX=0.5;exitY=1;exitDx=0;exitDy=0;" edge="1" parent="1">
          <mxGeometry width="50" height="50" relative="1" as="geometry">
            <mxPoint x="824" y="474.75" as="sourcePoint" />
            <mxPoint x="870" y="475" as="targetPoint" />
          </mxGeometry>
        </mxCell>
        <mxCell id="QFMOEgFZAVhb_OsHRTg_-31" value="rs1" style="endArrow=none;html=1;rounded=0;entryX=0.75;entryY=1;entryDx=0;entryDy=0;exitX=1;exitY=0.25;exitDx=0;exitDy=0;" edge="1" parent="1" source="QFMOEgFZAVhb_OsHRTg_-14" target="QFMOEgFZAVhb_OsHRTg_-17">
          <mxGeometry width="50" height="50" relative="1" as="geometry">
            <mxPoint x="610" y="590" as="sourcePoint" />
            <mxPoint x="660" y="540" as="targetPoint" />
          </mxGeometry>
        </mxCell>
        <mxCell id="QFMOEgFZAVhb_OsHRTg_-33" value="" style="endArrow=none;html=1;rounded=0;entryX=0.64;entryY=1.091;entryDx=0;entryDy=0;entryPerimeter=0;exitX=1;exitY=0.863;exitDx=0;exitDy=0;exitPerimeter=0;" edge="1" parent="1">
          <mxGeometry width="50" height="50" relative="1" as="geometry">
            <mxPoint x="700" y="447.55999999999995" as="sourcePoint" />
            <mxPoint x="784.9989999999998" y="446.5" as="targetPoint" />
          </mxGeometry>
        </mxCell>
        <mxCell id="QFMOEgFZAVhb_OsHRTg_-98" value="rs2" style="edgeLabel;html=1;align=center;verticalAlign=middle;resizable=0;points=[];" vertex="1" connectable="0" parent="QFMOEgFZAVhb_OsHRTg_-33">
          <mxGeometry x="0.0591" y="1" relative="1" as="geometry">
            <mxPoint as="offset" />
          </mxGeometry>
        </mxCell>
        <mxCell id="QFMOEgFZAVhb_OsHRTg_-34" value="" style="endArrow=none;html=1;rounded=0;exitX=0.75;exitY=0;exitDx=0;exitDy=0;entryX=1.375;entryY=-0.15;entryDx=0;entryDy=0;entryPerimeter=0;" edge="1" parent="1" source="QFMOEgFZAVhb_OsHRTg_-18" target="QFMOEgFZAVhb_OsHRTg_-16">
          <mxGeometry width="50" height="50" relative="1" as="geometry">
            <mxPoint x="610" y="590" as="sourcePoint" />
            <mxPoint x="810" y="470" as="targetPoint" />
          </mxGeometry>
        </mxCell>
        <mxCell id="QFMOEgFZAVhb_OsHRTg_-35" value="" style="endArrow=none;html=1;rounded=0;" edge="1" parent="1">
          <mxGeometry width="50" height="50" relative="1" as="geometry">
            <mxPoint x="1030" y="430" as="sourcePoint" />
            <mxPoint x="980" y="430" as="targetPoint" />
          </mxGeometry>
        </mxCell>
        <mxCell id="QFMOEgFZAVhb_OsHRTg_-45" value="result" style="edgeLabel;html=1;align=center;verticalAlign=middle;resizable=0;points=[];" vertex="1" connectable="0" parent="QFMOEgFZAVhb_OsHRTg_-35">
          <mxGeometry x="-0.08" y="-1" relative="1" as="geometry">
            <mxPoint as="offset" />
          </mxGeometry>
        </mxCell>
        <mxCell id="QFMOEgFZAVhb_OsHRTg_-36" value="" style="rounded=0;whiteSpace=wrap;html=1;rotation=90;" vertex="1" parent="1">
          <mxGeometry x="970" y="410" width="142" height="11" as="geometry" />
        </mxCell>
        <mxCell id="QFMOEgFZAVhb_OsHRTg_-37" value="" style="triangle;whiteSpace=wrap;html=1;rotation=-90;" vertex="1" parent="1">
          <mxGeometry x="1036.5" y="476.5" width="10" height="10" as="geometry" />
        </mxCell>
        <mxCell id="QFMOEgFZAVhb_OsHRTg_-38" value="data&lt;div&gt;memory&lt;/div&gt;" style="rounded=1;whiteSpace=wrap;html=1;" vertex="1" parent="1">
          <mxGeometry x="1120" y="360" width="130" height="138" as="geometry" />
        </mxCell>
        <mxCell id="QFMOEgFZAVhb_OsHRTg_-39" value="" style="endArrow=none;html=1;rounded=0;exitX=0.609;exitY=-0.409;exitDx=0;exitDy=0;exitPerimeter=0;" edge="1" parent="1" source="QFMOEgFZAVhb_OsHRTg_-36">
          <mxGeometry width="50" height="50" relative="1" as="geometry">
            <mxPoint x="850" y="590" as="sourcePoint" />
            <mxPoint x="1120" y="430" as="targetPoint" />
          </mxGeometry>
        </mxCell>
        <mxCell id="QFMOEgFZAVhb_OsHRTg_-44" value="addr" style="edgeLabel;html=1;align=center;verticalAlign=middle;resizable=0;points=[];" vertex="1" connectable="0" parent="QFMOEgFZAVhb_OsHRTg_-39">
          <mxGeometry x="0.3049" y="1" relative="1" as="geometry">
            <mxPoint as="offset" />
          </mxGeometry>
        </mxCell>
        <mxCell id="QFMOEgFZAVhb_OsHRTg_-40" value="" style="endArrow=none;html=1;rounded=0;entryX=-0.031;entryY=0.696;entryDx=0;entryDy=0;entryPerimeter=0;" edge="1" parent="1" target="QFMOEgFZAVhb_OsHRTg_-38">
          <mxGeometry width="50" height="50" relative="1" as="geometry">
            <mxPoint x="1050" y="456" as="sourcePoint" />
            <mxPoint x="900" y="540" as="targetPoint" />
          </mxGeometry>
        </mxCell>
        <mxCell id="QFMOEgFZAVhb_OsHRTg_-116" value="rs2" style="edgeLabel;html=1;align=center;verticalAlign=middle;resizable=0;points=[];" vertex="1" connectable="0" parent="QFMOEgFZAVhb_OsHRTg_-40">
          <mxGeometry x="0.0611" y="-2" relative="1" as="geometry">
            <mxPoint as="offset" />
          </mxGeometry>
        </mxCell>
        <mxCell id="QFMOEgFZAVhb_OsHRTg_-47" value="" style="endArrow=none;html=1;rounded=0;exitX=1;exitY=0.5;exitDx=0;exitDy=0;" edge="1" parent="1" source="QFMOEgFZAVhb_OsHRTg_-38">
          <mxGeometry width="50" height="50" relative="1" as="geometry">
            <mxPoint x="1420" y="460" as="sourcePoint" />
            <mxPoint x="1320" y="429" as="targetPoint" />
          </mxGeometry>
        </mxCell>
        <mxCell id="QFMOEgFZAVhb_OsHRTg_-48" value="" style="endArrow=none;html=1;rounded=0;" edge="1" parent="1">
          <mxGeometry width="50" height="50" relative="1" as="geometry">
            <mxPoint x="1150" y="550" as="sourcePoint" />
            <mxPoint x="1150" y="500" as="targetPoint" />
          </mxGeometry>
        </mxCell>
        <mxCell id="QFMOEgFZAVhb_OsHRTg_-49" value="we" style="edgeLabel;html=1;align=center;verticalAlign=middle;resizable=0;points=[];" vertex="1" connectable="0" parent="QFMOEgFZAVhb_OsHRTg_-48">
          <mxGeometry x="0.08" y="-1" relative="1" as="geometry">
            <mxPoint as="offset" />
          </mxGeometry>
        </mxCell>
        <mxCell id="QFMOEgFZAVhb_OsHRTg_-50" value="" style="endArrow=none;html=1;rounded=0;entryX=0;entryY=0.25;entryDx=0;entryDy=0;" edge="1" parent="1" target="QFMOEgFZAVhb_OsHRTg_-38">
          <mxGeometry width="50" height="50" relative="1" as="geometry">
            <mxPoint x="1050" y="395" as="sourcePoint" />
            <mxPoint x="690" y="540" as="targetPoint" />
          </mxGeometry>
        </mxCell>
        <mxCell id="QFMOEgFZAVhb_OsHRTg_-51" value="be" style="edgeLabel;html=1;align=center;verticalAlign=middle;resizable=0;points=[];" vertex="1" connectable="0" parent="QFMOEgFZAVhb_OsHRTg_-50">
          <mxGeometry x="-0.228" y="3" relative="1" as="geometry">
            <mxPoint as="offset" />
          </mxGeometry>
        </mxCell>
        <mxCell id="QFMOEgFZAVhb_OsHRTg_-53" value="" style="endArrow=none;html=1;rounded=0;entryX=0.5;entryY=0;entryDx=0;entryDy=0;exitX=0;exitY=0.5;exitDx=0;exitDy=0;" edge="1" parent="1" source="QFMOEgFZAVhb_OsHRTg_-14" target="QFMOEgFZAVhb_OsHRTg_-11">
          <mxGeometry width="50" height="50" relative="1" as="geometry">
            <mxPoint x="580" y="426" as="sourcePoint" />
            <mxPoint x="690" y="540" as="targetPoint" />
          </mxGeometry>
        </mxCell>
        <mxCell id="QFMOEgFZAVhb_OsHRTg_-62" value="rs2" style="edgeLabel;html=1;align=center;verticalAlign=middle;resizable=0;points=[];" vertex="1" connectable="0" parent="QFMOEgFZAVhb_OsHRTg_-53">
          <mxGeometry x="-0.3655" y="1" relative="1" as="geometry">
            <mxPoint as="offset" />
          </mxGeometry>
        </mxCell>
        <mxCell id="QFMOEgFZAVhb_OsHRTg_-54" value="" style="rounded=0;whiteSpace=wrap;html=1;rotation=90;" vertex="1" parent="1">
          <mxGeometry x="1250" y="410.75" width="142" height="11" as="geometry" />
        </mxCell>
        <mxCell id="QFMOEgFZAVhb_OsHRTg_-55" value="" style="triangle;whiteSpace=wrap;html=1;rotation=-90;" vertex="1" parent="1">
          <mxGeometry x="1316" y="476.5" width="10" height="10" as="geometry" />
        </mxCell>
        <mxCell id="QFMOEgFZAVhb_OsHRTg_-56" value="" style="endArrow=none;html=1;rounded=0;entryX=0.597;entryY=0.045;entryDx=0;entryDy=0;entryPerimeter=0;exitX=0.5;exitY=1;exitDx=0;exitDy=0;" edge="1" parent="1" source="QFMOEgFZAVhb_OsHRTg_-69" target="QFMOEgFZAVhb_OsHRTg_-54">
          <mxGeometry width="50" height="50" relative="1" as="geometry">
            <mxPoint x="1370" y="430" as="sourcePoint" />
            <mxPoint x="690" y="540" as="targetPoint" />
          </mxGeometry>
        </mxCell>
        <mxCell id="QFMOEgFZAVhb_OsHRTg_-57" value="" style="endArrow=none;html=1;rounded=0;" edge="1" parent="1">
          <mxGeometry width="50" height="50" relative="1" as="geometry">
            <mxPoint x="580" y="460" as="sourcePoint" />
            <mxPoint x="580" y="390" as="targetPoint" />
          </mxGeometry>
        </mxCell>
        <mxCell id="QFMOEgFZAVhb_OsHRTg_-58" value="" style="endArrow=none;html=1;rounded=0;entryX=-0.025;entryY=0.196;entryDx=0;entryDy=0;entryPerimeter=0;" edge="1" parent="1" target="QFMOEgFZAVhb_OsHRTg_-14">
          <mxGeometry width="50" height="50" relative="1" as="geometry">
            <mxPoint x="580" y="390" as="sourcePoint" />
            <mxPoint x="690" y="540" as="targetPoint" />
          </mxGeometry>
        </mxCell>
        <mxCell id="QFMOEgFZAVhb_OsHRTg_-61" value="rs1" style="edgeLabel;html=1;align=center;verticalAlign=middle;resizable=0;points=[];" vertex="1" connectable="0" parent="QFMOEgFZAVhb_OsHRTg_-58">
          <mxGeometry x="0.0527" y="-2" relative="1" as="geometry">
            <mxPoint as="offset" />
          </mxGeometry>
        </mxCell>
        <mxCell id="QFMOEgFZAVhb_OsHRTg_-60" value="" style="endArrow=none;html=1;rounded=0;" edge="1" parent="1">
          <mxGeometry width="50" height="50" relative="1" as="geometry">
            <mxPoint x="580" y="460" as="sourcePoint" />
            <mxPoint x="620" y="460" as="targetPoint" />
          </mxGeometry>
        </mxCell>
        <mxCell id="QFMOEgFZAVhb_OsHRTg_-63" value="rd" style="edgeLabel;html=1;align=center;verticalAlign=middle;resizable=0;points=[];" vertex="1" connectable="0" parent="QFMOEgFZAVhb_OsHRTg_-60">
          <mxGeometry x="0.05" relative="1" as="geometry">
            <mxPoint as="offset" />
          </mxGeometry>
        </mxCell>
        <mxCell id="QFMOEgFZAVhb_OsHRTg_-64" value="" style="endArrow=none;html=1;rounded=0;" edge="1" parent="1">
          <mxGeometry width="50" height="50" relative="1" as="geometry">
            <mxPoint x="530" y="520" as="sourcePoint" />
            <mxPoint x="530" y="430" as="targetPoint" />
          </mxGeometry>
        </mxCell>
        <mxCell id="QFMOEgFZAVhb_OsHRTg_-66" value="ctr" style="rounded=1;whiteSpace=wrap;html=1;" vertex="1" parent="1">
          <mxGeometry x="610" y="620" width="90" height="240" as="geometry" />
        </mxCell>
        <mxCell id="QFMOEgFZAVhb_OsHRTg_-69" value="" style="shape=trapezoid;perimeter=trapezoidPerimeter;whiteSpace=wrap;html=1;fixedSize=1;rotation=90;" vertex="1" parent="1">
          <mxGeometry x="1330" y="423.5" width="110" height="11" as="geometry" />
        </mxCell>
        <mxCell id="QFMOEgFZAVhb_OsHRTg_-72" value="" style="endArrow=none;html=1;rounded=0;exitX=0.5;exitY=0;exitDx=0;exitDy=0;" edge="1" parent="1" source="QFMOEgFZAVhb_OsHRTg_-69">
          <mxGeometry width="50" height="50" relative="1" as="geometry">
            <mxPoint x="940" y="590" as="sourcePoint" />
            <mxPoint x="1470" y="429" as="targetPoint" />
          </mxGeometry>
        </mxCell>
        <mxCell id="QFMOEgFZAVhb_OsHRTg_-88" value="wb" style="edgeLabel;html=1;align=center;verticalAlign=middle;resizable=0;points=[];" vertex="1" connectable="0" parent="QFMOEgFZAVhb_OsHRTg_-72">
          <mxGeometry x="-0.1069" y="-2" relative="1" as="geometry">
            <mxPoint as="offset" />
          </mxGeometry>
        </mxCell>
        <mxCell id="QFMOEgFZAVhb_OsHRTg_-73" value="" style="endArrow=none;html=1;rounded=0;entryX=0.013;entryY=0.938;entryDx=0;entryDy=0;entryPerimeter=0;" edge="1" parent="1" target="QFMOEgFZAVhb_OsHRTg_-14">
          <mxGeometry width="50" height="50" relative="1" as="geometry">
            <mxPoint x="580" y="479" as="sourcePoint" />
            <mxPoint x="990" y="540" as="targetPoint" />
          </mxGeometry>
        </mxCell>
        <mxCell id="QFMOEgFZAVhb_OsHRTg_-74" value="wb" style="edgeLabel;html=1;align=center;verticalAlign=middle;resizable=0;points=[];" vertex="1" connectable="0" parent="QFMOEgFZAVhb_OsHRTg_-73">
          <mxGeometry x="-0.269" relative="1" as="geometry">
            <mxPoint as="offset" />
          </mxGeometry>
        </mxCell>
        <mxCell id="QFMOEgFZAVhb_OsHRTg_-75" value="" style="endArrow=none;html=1;rounded=0;entryX=0.25;entryY=1;entryDx=0;entryDy=0;" edge="1" parent="1" target="QFMOEgFZAVhb_OsHRTg_-14">
          <mxGeometry width="50" height="50" relative="1" as="geometry">
            <mxPoint x="640" y="540" as="sourcePoint" />
            <mxPoint x="990" y="540" as="targetPoint" />
          </mxGeometry>
        </mxCell>
        <mxCell id="QFMOEgFZAVhb_OsHRTg_-76" value="we" style="edgeLabel;html=1;align=center;verticalAlign=middle;resizable=0;points=[];" vertex="1" connectable="0" parent="QFMOEgFZAVhb_OsHRTg_-75">
          <mxGeometry x="-0.1776" relative="1" as="geometry">
            <mxPoint as="offset" />
          </mxGeometry>
        </mxCell>
        <mxCell id="QFMOEgFZAVhb_OsHRTg_-78" value="" style="endArrow=none;html=1;rounded=0;" edge="1" parent="1">
          <mxGeometry width="50" height="50" relative="1" as="geometry">
            <mxPoint x="436.5" y="250" as="sourcePoint" />
            <mxPoint x="476.5" y="280" as="targetPoint" />
          </mxGeometry>
        </mxCell>
        <mxCell id="QFMOEgFZAVhb_OsHRTg_-79" value="" style="endArrow=none;html=1;rounded=0;" edge="1" parent="1">
          <mxGeometry width="50" height="50" relative="1" as="geometry">
            <mxPoint x="436.5" y="330.08000000000004" as="sourcePoint" />
            <mxPoint x="476.5" y="300" as="targetPoint" />
          </mxGeometry>
        </mxCell>
        <mxCell id="QFMOEgFZAVhb_OsHRTg_-80" value="" style="endArrow=none;html=1;rounded=0;" edge="1" parent="1">
          <mxGeometry width="50" height="50" relative="1" as="geometry">
            <mxPoint x="456.5" y="290" as="sourcePoint" />
            <mxPoint x="436.5" y="250" as="targetPoint" />
            <Array as="points">
              <mxPoint x="436.5" y="270" />
            </Array>
          </mxGeometry>
        </mxCell>
        <mxCell id="QFMOEgFZAVhb_OsHRTg_-81" value="" style="endArrow=none;html=1;rounded=0;" edge="1" parent="1">
          <mxGeometry width="50" height="50" relative="1" as="geometry">
            <mxPoint x="456.5" y="290" as="sourcePoint" />
            <mxPoint x="436.5" y="330" as="targetPoint" />
            <Array as="points">
              <mxPoint x="436.5" y="310" />
            </Array>
          </mxGeometry>
        </mxCell>
        <mxCell id="QFMOEgFZAVhb_OsHRTg_-82" value="" style="endArrow=none;html=1;rounded=0;" edge="1" parent="1">
          <mxGeometry width="50" height="50" relative="1" as="geometry">
            <mxPoint x="476.5" y="300" as="sourcePoint" />
            <mxPoint x="476.5" y="280" as="targetPoint" />
          </mxGeometry>
        </mxCell>
        <mxCell id="QFMOEgFZAVhb_OsHRTg_-83" value="" style="endArrow=none;html=1;rounded=0;" edge="1" parent="1">
          <mxGeometry width="50" height="50" relative="1" as="geometry">
            <mxPoint x="400" y="260" as="sourcePoint" />
            <mxPoint x="436.5" y="260" as="targetPoint" />
          </mxGeometry>
        </mxCell>
        <mxCell id="QFMOEgFZAVhb_OsHRTg_-84" value="4" style="edgeLabel;html=1;align=center;verticalAlign=middle;resizable=0;points=[];" vertex="1" connectable="0" parent="QFMOEgFZAVhb_OsHRTg_-83">
          <mxGeometry x="-0.025" relative="1" as="geometry">
            <mxPoint as="offset" />
          </mxGeometry>
        </mxCell>
        <mxCell id="QFMOEgFZAVhb_OsHRTg_-87" value="" style="endArrow=none;html=1;rounded=0;entryX=0.25;entryY=1;entryDx=0;entryDy=0;" edge="1" parent="1" target="QFMOEgFZAVhb_OsHRTg_-3">
          <mxGeometry width="50" height="50" relative="1" as="geometry">
            <mxPoint x="250" y="410" as="sourcePoint" />
            <mxPoint x="990" y="540" as="targetPoint" />
          </mxGeometry>
        </mxCell>
        <mxCell id="QFMOEgFZAVhb_OsHRTg_-89" value="" style="endArrow=none;html=1;rounded=0;" edge="1" parent="1">
          <mxGeometry width="50" height="50" relative="1" as="geometry">
            <mxPoint x="940" y="560" as="sourcePoint" />
            <mxPoint x="940" y="470" as="targetPoint" />
          </mxGeometry>
        </mxCell>
        <mxCell id="QFMOEgFZAVhb_OsHRTg_-90" value="ctr" style="edgeLabel;html=1;align=center;verticalAlign=middle;resizable=0;points=[];" vertex="1" connectable="0" parent="QFMOEgFZAVhb_OsHRTg_-89">
          <mxGeometry x="-0.3111" y="1" relative="1" as="geometry">
            <mxPoint as="offset" />
          </mxGeometry>
        </mxCell>
        <mxCell id="QFMOEgFZAVhb_OsHRTg_-91" value="alu" style="text;html=1;align=center;verticalAlign=middle;resizable=0;points=[];autosize=1;strokeColor=none;fillColor=none;" vertex="1" parent="1">
          <mxGeometry x="930" y="408" width="40" height="30" as="geometry" />
        </mxCell>
        <mxCell id="QFMOEgFZAVhb_OsHRTg_-92" value="+" style="text;html=1;align=center;verticalAlign=middle;resizable=0;points=[];autosize=1;strokeColor=none;fillColor=none;" vertex="1" parent="1">
          <mxGeometry x="451.5" y="278" width="30" height="30" as="geometry" />
        </mxCell>
        <mxCell id="QFMOEgFZAVhb_OsHRTg_-93" value="" style="endArrow=none;html=1;rounded=0;exitX=0.994;exitY=0.154;exitDx=0;exitDy=0;exitPerimeter=0;" edge="1" parent="1" source="QFMOEgFZAVhb_OsHRTg_-66">
          <mxGeometry width="50" height="50" relative="1" as="geometry">
            <mxPoint x="993.5" y="590" as="sourcePoint" />
            <mxPoint x="763.5" y="657" as="targetPoint" />
          </mxGeometry>
        </mxCell>
        <mxCell id="QFMOEgFZAVhb_OsHRTg_-94" value="imm" style="edgeLabel;html=1;align=center;verticalAlign=middle;resizable=0;points=[];" vertex="1" connectable="0" parent="QFMOEgFZAVhb_OsHRTg_-93">
          <mxGeometry x="-0.1555" y="-1" relative="1" as="geometry">
            <mxPoint as="offset" />
          </mxGeometry>
        </mxCell>
        <mxCell id="QFMOEgFZAVhb_OsHRTg_-95" value="" style="endArrow=none;html=1;rounded=0;entryX=0.75;entryY=1;entryDx=0;entryDy=0;" edge="1" parent="1" target="QFMOEgFZAVhb_OsHRTg_-18">
          <mxGeometry width="50" height="50" relative="1" as="geometry">
            <mxPoint x="720" y="475" as="sourcePoint" />
            <mxPoint x="990" y="540" as="targetPoint" />
          </mxGeometry>
        </mxCell>
        <mxCell id="QFMOEgFZAVhb_OsHRTg_-96" value="imm" style="edgeLabel;html=1;align=center;verticalAlign=middle;resizable=0;points=[];" vertex="1" connectable="0" parent="QFMOEgFZAVhb_OsHRTg_-95">
          <mxGeometry x="-0.0304" relative="1" as="geometry">
            <mxPoint as="offset" />
          </mxGeometry>
        </mxCell>
        <mxCell id="QFMOEgFZAVhb_OsHRTg_-99" value="" style="endArrow=none;html=1;rounded=0;entryX=0.25;entryY=1;entryDx=0;entryDy=0;" edge="1" parent="1" target="QFMOEgFZAVhb_OsHRTg_-17">
          <mxGeometry width="50" height="50" relative="1" as="geometry">
            <mxPoint x="720" y="373" as="sourcePoint" />
            <mxPoint x="990" y="540" as="targetPoint" />
          </mxGeometry>
        </mxCell>
        <mxCell id="QFMOEgFZAVhb_OsHRTg_-100" value="pc" style="edgeLabel;html=1;align=center;verticalAlign=middle;resizable=0;points=[];" vertex="1" connectable="0" parent="QFMOEgFZAVhb_OsHRTg_-99">
          <mxGeometry x="-0.2424" y="-1" relative="1" as="geometry">
            <mxPoint as="offset" />
          </mxGeometry>
        </mxCell>
        <mxCell id="QFMOEgFZAVhb_OsHRTg_-102" value="" style="endArrow=none;html=1;rounded=0;exitX=0;exitY=0.5;exitDx=0;exitDy=0;" edge="1" parent="1" source="QFMOEgFZAVhb_OsHRTg_-66">
          <mxGeometry width="50" height="50" relative="1" as="geometry">
            <mxPoint x="570" y="760" as="sourcePoint" />
            <mxPoint x="570" y="430" as="targetPoint" />
            <Array as="points">
              <mxPoint x="570" y="740" />
            </Array>
          </mxGeometry>
        </mxCell>
        <mxCell id="QFMOEgFZAVhb_OsHRTg_-103" value="LITE&lt;br&gt;&lt;div&gt;BPU&lt;/div&gt;" style="rounded=1;whiteSpace=wrap;html=1;" vertex="1" parent="1">
          <mxGeometry x="470" y="520" width="86.5" height="100" as="geometry" />
        </mxCell>
        <mxCell id="QFMOEgFZAVhb_OsHRTg_-104" value="" style="endArrow=none;html=1;rounded=0;" edge="1" parent="1">
          <mxGeometry width="50" height="50" relative="1" as="geometry">
            <mxPoint x="700" y="690" as="sourcePoint" />
            <mxPoint x="770" y="690" as="targetPoint" />
          </mxGeometry>
        </mxCell>
        <mxCell id="QFMOEgFZAVhb_OsHRTg_-105" value="alu_a" style="edgeLabel;html=1;align=center;verticalAlign=middle;resizable=0;points=[];" vertex="1" connectable="0" parent="QFMOEgFZAVhb_OsHRTg_-104">
          <mxGeometry x="-0.2857" relative="1" as="geometry">
            <mxPoint as="offset" />
          </mxGeometry>
        </mxCell>
        <mxCell id="QFMOEgFZAVhb_OsHRTg_-106" value="" style="endArrow=none;html=1;rounded=0;exitX=1.011;exitY=0.417;exitDx=0;exitDy=0;exitPerimeter=0;" edge="1" parent="1" source="QFMOEgFZAVhb_OsHRTg_-66">
          <mxGeometry width="50" height="50" relative="1" as="geometry">
            <mxPoint x="940" y="590" as="sourcePoint" />
            <mxPoint x="770" y="720" as="targetPoint" />
          </mxGeometry>
        </mxCell>
        <mxCell id="QFMOEgFZAVhb_OsHRTg_-107" value="alu_b" style="edgeLabel;html=1;align=center;verticalAlign=middle;resizable=0;points=[];" vertex="1" connectable="0" parent="QFMOEgFZAVhb_OsHRTg_-106">
          <mxGeometry x="-0.3622" y="-2" relative="1" as="geometry">
            <mxPoint as="offset" />
          </mxGeometry>
        </mxCell>
        <mxCell id="QFMOEgFZAVhb_OsHRTg_-108" value="" style="endArrow=none;html=1;rounded=0;exitX=1.044;exitY=0.592;exitDx=0;exitDy=0;exitPerimeter=0;" edge="1" parent="1" source="QFMOEgFZAVhb_OsHRTg_-66">
          <mxGeometry width="50" height="50" relative="1" as="geometry">
            <mxPoint x="820" y="770" as="sourcePoint" />
            <mxPoint x="770" y="760" as="targetPoint" />
          </mxGeometry>
        </mxCell>
        <mxCell id="QFMOEgFZAVhb_OsHRTg_-109" value="alu_ctr" style="edgeLabel;html=1;align=center;verticalAlign=middle;resizable=0;points=[];" vertex="1" connectable="0" parent="QFMOEgFZAVhb_OsHRTg_-108">
          <mxGeometry x="-0.2707" y="1" relative="1" as="geometry">
            <mxPoint as="offset" />
          </mxGeometry>
        </mxCell>
        <mxCell id="QFMOEgFZAVhb_OsHRTg_-110" value="" style="endArrow=none;html=1;rounded=0;exitX=1.033;exitY=0.717;exitDx=0;exitDy=0;exitPerimeter=0;" edge="1" parent="1" source="QFMOEgFZAVhb_OsHRTg_-66">
          <mxGeometry width="50" height="50" relative="1" as="geometry">
            <mxPoint x="840" y="800" as="sourcePoint" />
            <mxPoint x="770" y="792" as="targetPoint" />
          </mxGeometry>
        </mxCell>
        <mxCell id="QFMOEgFZAVhb_OsHRTg_-117" value="be" style="edgeLabel;html=1;align=center;verticalAlign=middle;resizable=0;points=[];" vertex="1" connectable="0" parent="QFMOEgFZAVhb_OsHRTg_-110">
          <mxGeometry x="-0.1935" relative="1" as="geometry">
            <mxPoint as="offset" />
          </mxGeometry>
        </mxCell>
        <mxCell id="QFMOEgFZAVhb_OsHRTg_-111" value="" style="endArrow=none;html=1;rounded=0;entryX=0.75;entryY=1;entryDx=0;entryDy=0;" edge="1" parent="1" target="QFMOEgFZAVhb_OsHRTg_-3">
          <mxGeometry width="50" height="50" relative="1" as="geometry">
            <mxPoint x="250" y="440" as="sourcePoint" />
            <mxPoint x="200" y="448" as="targetPoint" />
          </mxGeometry>
        </mxCell>
        <mxCell id="QFMOEgFZAVhb_OsHRTg_-112" value="result" style="edgeLabel;html=1;align=center;verticalAlign=middle;resizable=0;points=[];" vertex="1" connectable="0" parent="QFMOEgFZAVhb_OsHRTg_-111">
          <mxGeometry x="0.3218" y="-2" relative="1" as="geometry">
            <mxPoint as="offset" />
          </mxGeometry>
        </mxCell>
        <mxCell id="QFMOEgFZAVhb_OsHRTg_-113" value="" style="endArrow=none;html=1;rounded=0;" edge="1" parent="1">
          <mxGeometry width="50" height="50" relative="1" as="geometry">
            <mxPoint x="400" y="430" as="sourcePoint" />
            <mxPoint x="440" y="320" as="targetPoint" />
            <Array as="points">
              <mxPoint x="400" y="320" />
            </Array>
          </mxGeometry>
        </mxCell>
        <mxCell id="QFMOEgFZAVhb_OsHRTg_-114" value="" style="endArrow=none;html=1;rounded=0;entryX=0.917;entryY=0.567;entryDx=0;entryDy=0;entryPerimeter=0;" edge="1" parent="1" target="QFMOEgFZAVhb_OsHRTg_-92">
          <mxGeometry width="50" height="50" relative="1" as="geometry">
            <mxPoint x="500" y="220" as="sourcePoint" />
            <mxPoint x="990" y="540" as="targetPoint" />
            <Array as="points">
              <mxPoint x="500" y="295" />
            </Array>
          </mxGeometry>
        </mxCell>
        <mxCell id="QFMOEgFZAVhb_OsHRTg_-115" value="" style="endArrow=none;html=1;rounded=0;" edge="1" parent="1">
          <mxGeometry width="50" height="50" relative="1" as="geometry">
            <mxPoint x="250" y="410" as="sourcePoint" />
            <mxPoint x="500" y="220" as="targetPoint" />
            <Array as="points">
              <mxPoint x="250" y="220" />
            </Array>
          </mxGeometry>
        </mxCell>
        <mxCell id="QFMOEgFZAVhb_OsHRTg_-118" value="" style="endArrow=none;html=1;rounded=0;exitX=1.011;exitY=0.858;exitDx=0;exitDy=0;exitPerimeter=0;" edge="1" parent="1" source="QFMOEgFZAVhb_OsHRTg_-66">
          <mxGeometry width="50" height="50" relative="1" as="geometry">
            <mxPoint x="940" y="590" as="sourcePoint" />
            <mxPoint x="770" y="826" as="targetPoint" />
          </mxGeometry>
        </mxCell>
        <mxCell id="QFMOEgFZAVhb_OsHRTg_-119" value="r&amp;amp;d_we" style="edgeLabel;html=1;align=center;verticalAlign=middle;resizable=0;points=[];" vertex="1" connectable="0" parent="QFMOEgFZAVhb_OsHRTg_-118">
          <mxGeometry x="-0.3911" y="1" relative="1" as="geometry">
            <mxPoint x="8" as="offset" />
          </mxGeometry>
        </mxCell>
        <mxCell id="QFMOEgFZAVhb_OsHRTg_-120" value="" style="endArrow=none;html=1;rounded=0;exitX=1.022;exitY=0.954;exitDx=0;exitDy=0;exitPerimeter=0;" edge="1" parent="1" source="QFMOEgFZAVhb_OsHRTg_-66">
          <mxGeometry width="50" height="50" relative="1" as="geometry">
            <mxPoint x="940" y="590" as="sourcePoint" />
            <mxPoint x="770" y="850" as="targetPoint" />
          </mxGeometry>
        </mxCell>
        <mxCell id="QFMOEgFZAVhb_OsHRTg_-121" value="wb" style="edgeLabel;html=1;align=center;verticalAlign=middle;resizable=0;points=[];" vertex="1" connectable="0" parent="QFMOEgFZAVhb_OsHRTg_-120">
          <mxGeometry x="-0.293" y="-2" relative="1" as="geometry">
            <mxPoint as="offset" />
          </mxGeometry>
        </mxCell>
        <mxCell id="QFMOEgFZAVhb_OsHRTg_-122" value="" style="rounded=0;whiteSpace=wrap;html=1;rotation=90;" vertex="1" parent="1">
          <mxGeometry x="730.25" y="779.75" width="182.5" height="11" as="geometry" />
        </mxCell>
        <mxCell id="QFMOEgFZAVhb_OsHRTg_-123" value="" style="triangle;whiteSpace=wrap;html=1;rotation=-90;" vertex="1" parent="1">
          <mxGeometry x="817" y="866.5" width="10" height="10" as="geometry" />
        </mxCell>
        <mxCell id="QFMOEgFZAVhb_OsHRTg_-124" value="" style="rounded=0;whiteSpace=wrap;html=1;rotation=90;" vertex="1" parent="1">
          <mxGeometry x="985" y="815" width="112" height="11" as="geometry" />
        </mxCell>
        <mxCell id="QFMOEgFZAVhb_OsHRTg_-125" value="" style="triangle;whiteSpace=wrap;html=1;rotation=-90;" vertex="1" parent="1">
          <mxGeometry x="1036.5" y="866.5" width="10" height="10" as="geometry" />
        </mxCell>
        <mxCell id="QFMOEgFZAVhb_OsHRTg_-126" value="" style="rounded=0;whiteSpace=wrap;html=1;rotation=90;" vertex="1" parent="1">
          <mxGeometry x="1290" y="840" width="62" height="11" as="geometry" />
        </mxCell>
        <mxCell id="QFMOEgFZAVhb_OsHRTg_-127" value="" style="triangle;whiteSpace=wrap;html=1;rotation=-90;" vertex="1" parent="1">
          <mxGeometry x="1316.5" y="866.5" width="10" height="10" as="geometry" />
        </mxCell>
      </root>
    </mxGraphModel>
  </diagram>
</mxfile>
